<?xml version="1.0" encoding="utf-8"?>
<!-- Generator: Adobe Illustrator 24.1.2, SVG Export Plug-In . SVG Version: 6.00 Build 0)  -->
<svg version="1.1" id="Слой_1" xmlns="http://www.w3.org/2000/svg" xmlns:xlink="http://www.w3.org/1999/xlink" x="0px" y="0px"
	 viewBox="0 0 254 220" style="enable-background:new 0 0 254 220;" xml:space="preserve">
<style type="text/css">
	.st0{fill:url(#SVGID_1_);stroke:#CCFFD9;stroke-miterlimit:10;}
	.st1{fill:url(#SVGID_2_);stroke:#CCFFD9;stroke-miterlimit:10;}
	.st2{fill:#FFFFFF;}
	.st3{font-family:'Lato-Bold';}
	.st4{font-size:75.6212px;}
</style>
<linearGradient id="SVGID_1_" gradientUnits="userSpaceOnUse" x1="31.4537" y1="118.4619" x2="130" y2="118.4619">
	<stop  offset="0" style="stop-color:#CCFFD9"/>
	<stop  offset="0.7603" style="stop-color:#6DC9CF"/>
</linearGradient>
<path class="st0" d="M130,55.58c-0.06-0.13-0.16-0.33-0.27-0.57c-0.7-1.46-9.43-18.98-27.87-26.5
	c-17.79-7.25-39.99-3.31-54.28,10.03C32.57,52.55,31.86,71.74,31.5,81.65c-0.3,8.19,0.35,27.14,18.09,56.15
	c23.59,38.56,57.02,61.51,80.41,74.2"/>
<linearGradient id="SVGID_2_" gradientUnits="userSpaceOnUse" x1="129.1639" y1="118.0773" x2="227.2106" y2="118.0773">
	<stop  offset="0.2402" style="stop-color:#6DC9CF"/>
	<stop  offset="1" style="stop-color:#CCFFD9"/>
</linearGradient>
<path class="st1" d="M129.16,55.23c1.82-3.92,9.69-19.71,28-27c18.71-7.45,40.29-2.82,54,10c14.93,13.97,15.64,33.11,16,43
	c0.31,8.45-0.43,27.17-18,56c-23.33,38.28-78.66,74.27-79.66,74.27"/>
<g>
	<text transform="matrix(0.8157 0 0 1 104.4336 147.8018)" class="st2 st3 st4">IT</text>
	<text transform="matrix(0.8157 0 0 1 104.4336 147.8018)" class="st2 st3 st4">IT</text>
</g>
</svg>
